<svg width="12" height="13" viewBox="0 0 12 13" fill="none" xmlns="http://www.w3.org/2000/svg">
<g opacity="0.16" clip-path="url(#clip0)">
<path d="M11.707 1.112C11.5194 0.924529 11.2651 0.819214 11 0.819214C10.7348 0.819214 10.4805 0.924529 10.293 1.112C10.15 1.255 8.74998 2.875 8.03648 3.784C8.0258 3.79839 8.01214 3.81031 7.99644 3.81894C7.98073 3.82757 7.96335 3.83271 7.94548 3.834C7.92785 3.835 7.91021 3.83232 7.89368 3.82612C7.87715 3.81992 7.8621 3.81034 7.84948 3.798L7.03748 2.9835C6.94371 2.88976 6.81656 2.83711 6.68398 2.83711C6.55139 2.83711 6.42424 2.88976 6.33048 2.9835C6.23674 3.07726 6.18408 3.20442 6.18408 3.337C6.18408 3.46958 6.23674 3.59674 6.33048 3.6905L6.86048 4.2205C6.8721 4.23207 6.88133 4.24582 6.88762 4.26097C6.89392 4.27611 6.89716 4.29235 6.89716 4.30875C6.89716 4.32515 6.89392 4.34139 6.88762 4.35653C6.88133 4.37168 6.8721 4.38543 6.86048 4.397L6.74598 4.5115C6.69911 4.55838 6.67278 4.62196 6.67278 4.68825C6.67278 4.75454 6.69911 4.81812 6.74598 4.865L7.98398 6.1035C8.03086 6.15037 8.09443 6.1767 8.16073 6.1767C8.22702 6.1767 8.29059 6.15037 8.33748 6.1035L8.45198 5.9885C8.47555 5.96523 8.50735 5.95219 8.54048 5.95219C8.5736 5.95219 8.6054 5.96523 8.62898 5.9885L9.15898 6.5185C9.25328 6.60958 9.37958 6.65998 9.51068 6.65884C9.64177 6.6577 9.76718 6.60511 9.85988 6.51241C9.95259 6.41971 10.0052 6.2943 10.0063 6.1632C10.0075 6.0321 9.95705 5.9058 9.86598 5.8115L9.02498 4.9705C9.01244 4.95798 9.00272 4.94293 8.99644 4.92637C8.99016 4.9098 8.98748 4.89209 8.98857 4.87441C8.98966 4.85673 8.99449 4.83948 9.00275 4.8238C9.01101 4.80813 9.0225 4.79439 9.03648 4.7835C9.91848 4.0955 11.4915 2.7415 11.707 2.526C11.8944 2.33847 11.9998 2.08416 11.9998 1.819C11.9998 1.55384 11.8944 1.29953 11.707 1.112Z" fill="#2465A9"/>
<path d="M3.16301 8.09541C2.05275 9.14908 1.18988 10.4358 0.636514 11.8629C0.620203 11.9076 0.616962 11.9559 0.62717 12.0024C0.637378 12.0488 0.660612 12.0914 0.694148 12.1251C0.727684 12.1587 0.770131 12.1822 0.816512 12.1926C0.862893 12.203 0.911285 12.2 0.956014 12.1839C2.3931 11.6453 3.69148 10.7919 4.75601 9.68641L5.33401 9.10791C5.38088 9.06103 5.40721 8.99745 5.40721 8.93116C5.40721 8.86487 5.38088 8.80129 5.33401 8.75441L4.09451 7.51741C4.04763 7.47054 3.98405 7.44421 3.91776 7.44421C3.85147 7.44421 3.7879 7.47054 3.74101 7.51741L3.16301 8.09541Z" fill="#2465A9"/>
<path d="M8.86749 8.04999L5.16748 4.34999C5.14413 4.32656 5.13101 4.29483 5.13101 4.26174C5.13101 4.22866 5.14413 4.19692 5.16748 4.17349L5.69749 3.64349C5.74645 3.59777 5.78572 3.54267 5.81297 3.48147C5.84022 3.42027 5.8549 3.35421 5.85612 3.28723C5.85735 3.22025 5.8451 3.1537 5.82011 3.09155C5.79512 3.02939 5.75789 2.97289 5.71064 2.9254C5.66338 2.87791 5.60707 2.8404 5.54503 2.8151C5.483 2.7898 5.41652 2.77723 5.34953 2.77812C5.28254 2.77902 5.21642 2.79336 5.15508 2.82031C5.09375 2.84726 5.03845 2.88626 4.99248 2.93499L2.16449 5.76349C2.11673 5.80962 2.07864 5.86479 2.05243 5.92579C2.02623 5.98679 2.01244 6.0524 2.01186 6.11879C2.01128 6.18518 2.02393 6.25102 2.04907 6.31247C2.07421 6.37392 2.11134 6.42974 2.15829 6.47669C2.20523 6.52364 2.26106 6.56076 2.32251 6.5859C2.38396 6.61104 2.4498 6.6237 2.51619 6.62312C2.58258 6.62254 2.64819 6.60875 2.70919 6.58254C2.77019 6.55634 2.82536 6.51825 2.87149 6.47049L3.40148 5.94049C3.42492 5.91714 3.45665 5.90402 3.48973 5.90402C3.52282 5.90402 3.55455 5.91714 3.57799 5.94049L7.27799 9.64049C8.33192 10.7504 9.61855 11.6133 11.0455 12.167C11.0902 12.1832 11.1385 12.1864 11.185 12.1761C11.2314 12.1658 11.2739 12.1425 11.3075 12.1089C11.3412 12.0754 11.3645 12.0329 11.3749 11.9865C11.3852 11.9401 11.3822 11.8917 11.366 11.847C10.8269 10.4107 9.97321 9.11337 8.86749 8.04999Z" fill="#2465A9"/>
<path d="M2.83603 4.20792L3.41203 3.63142C3.45393 3.58938 3.47951 3.53379 3.48418 3.47461C3.48885 3.41543 3.47232 3.35652 3.43753 3.30842C2.89653 2.55992 1.95003 1.33842 1.70703 1.09392C1.51945 0.906415 1.26507 0.801101 0.999849 0.801147C0.734626 0.801194 0.480284 0.906599 0.292776 1.09417C0.105268 1.28175 -4.68684e-05 1.53613 1.56472e-08 1.80135C4.68997e-05 2.06657 0.105451 2.32092 0.293026 2.50842C0.454026 2.66942 1.73203 3.65842 2.51153 4.23242C2.55963 4.26775 2.61879 4.28469 2.67831 4.2802C2.73782 4.27571 2.79377 4.25007 2.83603 4.20792Z" fill="#2465A9"/>
</g>
<defs>
<clipPath id="clip0">
<rect width="12" height="12" fill="white" transform="translate(0 0.5)"/>
</clipPath>
</defs>
</svg>
