<svg width="24" height="24" viewBox="0 0 24 24" fill="none" xmlns="http://www.w3.org/2000/svg">
<path d="M22.2742 1.96842C21.919 0.829219 20.8546 0 19.6002 0H4.40057C2.8566 0 1.60059 1.25639 1.60059 2.79998V3.6H10.0002H14.0002H22.4002V2.79998C22.4002 2.51039 22.3562 2.2312 22.2742 1.96842Z" fill="#112944"/>
<path d="M11.9999 18.4001C11.2555 18.4001 10.6291 18.9106 10.4507 19.6001H13.5495C13.3715 18.9106 12.7443 18.4001 11.9999 18.4001Z" fill="#112944"/>
<path d="M10.457 12.4001C10.6358 13.0886 11.2566 13.6001 12.0002 13.6001C12.7435 13.6001 13.3646 13.0886 13.5435 12.4001H10.457Z" fill="#112944"/>
<path d="M14.3639 12.4001C14.1727 13.5333 13.1871 14.4002 11.9999 14.4002C10.8131 14.4002 9.82745 13.5333 9.63587 12.4001H1.59985V19.6001H9.63587C9.82745 18.4669 10.8131 17.6001 11.9999 17.6001C13.1867 17.6001 14.1727 18.4669 14.3639 19.6001H22.3999V12.4001H14.3639ZM6.00025 18.0002C4.89746 18.0002 4.00023 17.103 4.00023 16.0001C4.00023 14.8974 4.89742 14.0001 6.00025 14.0001C7.10303 14.0001 8.00026 14.8973 8.00026 16.0001C8.00026 17.103 7.10307 18.0002 6.00025 18.0002ZM18.0002 18.0002C16.8975 18.0002 16.0002 17.103 16.0002 16.0001C16.0002 14.8974 16.8974 14.0001 18.0002 14.0001C19.103 14.0001 20.0003 14.8973 20.0003 16.0001C20.0003 17.103 19.1031 18.0002 18.0002 18.0002Z" fill="#112944"/>
<path d="M12 10.3999C11.2568 10.3999 10.6356 10.9115 10.4568 11.5999H13.5432C13.3644 10.9115 12.7432 10.3999 12 10.3999Z" fill="#112944"/>
<path d="M6.00005 17.2C6.66279 17.2 7.20005 16.6628 7.20005 16C7.20005 15.3373 6.66279 14.8 6.00005 14.8C5.33731 14.8 4.80005 15.3373 4.80005 16C4.80005 16.6628 5.33731 17.2 6.00005 17.2Z" fill="#112944"/>
<path d="M18 17.2C18.6628 17.2 19.2001 16.6628 19.2001 16C19.2001 15.3373 18.6628 14.8 18 14.8C17.3373 14.8 16.8 15.3373 16.8 16C16.8 16.6628 17.3373 17.2 18 17.2Z" fill="#112944"/>
<path d="M10.4507 4.3999C10.6287 5.08948 11.2559 5.5999 12.0003 5.5999C12.7447 5.5999 13.3715 5.08948 13.5495 4.3999H10.4507Z" fill="#112944"/>
<path d="M18 9.20005C18.6628 9.20005 19.2001 8.66279 19.2001 8.00005C19.2001 7.33731 18.6628 6.80005 18 6.80005C17.3373 6.80005 16.8 7.33731 16.8 8.00005C16.8 8.66279 17.3373 9.20005 18 9.20005Z" fill="#112944"/>
<path d="M14.3639 4.3999C14.1727 5.53311 13.1871 6.39992 11.9999 6.39992C10.8131 6.39992 9.82745 5.53311 9.63587 4.3999H1.59985V11.5999H9.63587C9.82745 10.4667 10.8131 9.59989 11.9999 9.59989C13.1867 9.59989 14.1727 10.4667 14.3639 11.5999H22.3999V4.3999H14.3639ZM6.00025 9.99988C4.89746 9.99988 4.00023 9.10269 4.00023 7.99986C4.00023 6.89708 4.89742 5.99984 6.00025 5.99984C7.10303 5.99984 8.00026 6.89703 8.00026 7.99986C8.00026 9.10269 7.10307 9.99988 6.00025 9.99988ZM18.0002 9.99988C16.8975 9.99988 16.0002 9.10269 16.0002 7.99986C16.0002 6.89708 16.8974 5.99984 18.0002 5.99984C19.103 5.99984 20.0003 6.89703 20.0003 7.99986C20.0003 9.10269 19.1031 9.99988 18.0002 9.99988Z" fill="#112944"/>
<path d="M6.00005 9.20005C6.66279 9.20005 7.20005 8.66279 7.20005 8.00005C7.20005 7.33731 6.66279 6.80005 6.00005 6.80005C5.33731 6.80005 4.80005 7.33731 4.80005 8.00005C4.80005 8.66279 5.33731 9.20005 6.00005 9.20005Z" fill="#112944"/>
<path d="M14.0003 20.3999H10.0003H1.60034V21.1999C1.60034 21.5859 1.67872 21.9539 1.82075 22.2887C2.24633 23.2931 3.24233 23.9999 4.40033 23.9999H19.6004C21.1444 23.9999 22.4003 22.7435 22.4003 21.1999V20.3999H14.0003Z" fill="#112944"/>
</svg>
