<?xml version="1.0" encoding="UTF-8"?>
<svg width="16px" height="16px" viewBox="0 0 16 16" version="1.1" xmlns="http://www.w3.org/2000/svg" xmlns:xlink="http://www.w3.org/1999/xlink">
    <!-- Generator: sketchtool 47 (45396) - http://www.bohemiancoding.com/sketch -->
    <title>8378C276-A56F-4593-B980-0E4FD356D508</title>
    <desc>Created with sketchtool.</desc>
    <defs></defs>
    <g id="Web" stroke="none" stroke-width="1" fill="none" fill-rule="evenodd">
        <g id="Komponenty" transform="translate(-881.000000, -518.000000)" fill-rule="nonzero" fill="#FFFFFF">
            <g id="Group-4" transform="translate(881.000000, 518.000000)">
                <path d="M12.1290323,7.48387097 L12.1290323,8.51612903 C12.1290323,8.72903226 11.9548387,8.90322581 11.7419355,8.90322581 L8.90322581,8.90322581 L8.90322581,11.7419355 C8.90322581,11.9548387 8.72903226,12.1290323 8.51612903,12.1290323 L7.48387097,12.1290323 C7.27096774,12.1290323 7.09677419,11.9548387 7.09677419,11.7419355 L7.09677419,8.90322581 L4.25806452,8.90322581 C4.04516129,8.90322581 3.87096774,8.72903226 3.87096774,8.51612903 L3.87096774,7.48387097 C3.87096774,7.27096774 4.04516129,7.09677419 4.25806452,7.09677419 L7.09677419,7.09677419 L7.09677419,4.25806452 C7.09677419,4.04516129 7.27096774,3.87096774 7.48387097,3.87096774 L8.51612903,3.87096774 C8.72903226,3.87096774 8.90322581,4.04516129 8.90322581,4.25806452 L8.90322581,7.09677419 L11.7419355,7.09677419 C11.9548387,7.09677419 12.1290323,7.27096774 12.1290323,7.48387097 Z M16,8 C16,12.4193548 12.4193548,16 8,16 C3.58064516,16 0,12.4193548 0,8 C0,3.58064516 3.58064516,0 8,0 C12.4193548,0 16,3.58064516 16,8 Z M14.4516129,8 C14.4516129,4.43548387 11.5645161,1.5483871 8,1.5483871 C4.43548387,1.5483871 1.5483871,4.43548387 1.5483871,8 C1.5483871,11.5645161 4.43548387,14.4516129 8,14.4516129 C11.5645161,14.4516129 14.4516129,11.5645161 14.4516129,8 Z" id="ico-plus"></path>
            </g>
        </g>
    </g>
</svg>