<svg width="18" height="18" viewBox="0 0 18 18" fill="none" xmlns="http://www.w3.org/2000/svg">
<g id="instagram">
<path id="Shape" fill-rule="evenodd" clip-rule="evenodd" d="M13 0H5C2.23858 0 0 2.23858 0 5V13C0 15.7614 2.23858 18 5 18H13C15.7614 18 18 15.7614 18 13V5C18 2.23858 15.7614 0 13 0ZM16.25 12.9999C16.2445 14.7926 14.7926 16.2444 13 16.2499H5C3.20735 16.2444 1.75549 14.7926 1.75 12.9999V4.99992C1.75549 3.20728 3.20735 1.75541 5 1.74992H13C14.7926 1.75541 16.2445 3.20728 16.25 4.99992V12.9999ZM13.75 5.25002C14.3023 5.25002 14.75 4.80231 14.75 4.25003C14.75 3.69774 14.3023 3.25003 13.75 3.25003C13.1977 3.25003 12.75 3.69774 12.75 4.25003C12.75 4.80231 13.1977 5.25002 13.75 5.25002ZM8.99999 4.50009C6.51472 4.50009 4.5 6.51481 4.5 9.00009C4.5 11.4854 6.51472 13.5001 8.99999 13.5001C11.4853 13.5001 13.5 11.4854 13.5 9.00009C13.5027 7.8058 13.0294 6.65966 12.1849 5.81517C11.3404 4.97068 10.1943 4.49743 8.99999 4.50009ZM6.25 9C6.25 10.5188 7.48122 11.75 9 11.75C10.5188 11.75 11.75 10.5188 11.75 9C11.75 7.48122 10.5188 6.25 9 6.25C7.48122 6.25 6.25 7.48122 6.25 9Z" fill="#112944"/>
</g>
</svg>
