<svg width="40" height="40" viewBox="0 0 40 40" fill="none" xmlns="http://www.w3.org/2000/svg">
<g clip-path="url(#clip0)">
<path d="M39.0234 2.04004C38.3983 1.41514 37.5506 1.06409 36.6667 1.06409C35.7829 1.06409 34.9352 1.41514 34.3101 2.04004C33.8334 2.51671 29.1667 7.91671 26.7884 10.9467C26.7528 10.9947 26.7073 11.0344 26.655 11.0632C26.6026 11.0919 26.5447 11.1091 26.4851 11.1134C26.4263 11.1167 26.3675 11.1078 26.3124 11.0871C26.2573 11.0664 26.2071 11.0345 26.1651 10.9934L23.4584 8.27837C23.1459 7.96592 22.722 7.7904 22.2801 7.7904C21.8381 7.7904 21.4143 7.96592 21.1017 8.27837C20.7893 8.59092 20.6138 9.01477 20.6138 9.45671C20.6138 9.89865 20.7893 10.3225 21.1017 10.635L22.8684 12.4017C22.9072 12.4403 22.9379 12.4861 22.9589 12.5366C22.9799 12.5871 22.9907 12.6412 22.9907 12.6959C22.9907 12.7505 22.9799 12.8047 22.9589 12.8552C22.9379 12.9056 22.9072 12.9515 22.8684 12.99L22.4867 13.3717C22.3305 13.528 22.2428 13.7399 22.2428 13.9609C22.2428 14.1818 22.3305 14.3938 22.4867 14.55L26.6134 18.6784C26.7697 18.8346 26.9816 18.9224 27.2026 18.9224C27.4236 18.9224 27.6355 18.8346 27.7917 18.6784L28.1734 18.295C28.252 18.2175 28.358 18.174 28.4684 18.174C28.5788 18.174 28.6848 18.2175 28.7634 18.295L30.5301 20.0617C30.8444 20.3653 31.2654 20.5333 31.7024 20.5295C32.1394 20.5257 32.5574 20.3504 32.8664 20.0414C33.1755 19.7324 33.3507 19.3144 33.3545 18.8774C33.3583 18.4404 33.1903 18.0194 32.8867 17.705L30.0834 14.9017C30.0416 14.86 30.0092 14.8098 29.9883 14.7546C29.9674 14.6994 29.9584 14.6403 29.9621 14.5814C29.9657 14.5225 29.9818 14.465 30.0093 14.4127C30.0369 14.3605 30.0752 14.3147 30.1217 14.2784C33.0617 11.985 38.3051 7.47171 39.0234 6.75337C39.6483 6.12828 39.9994 5.28059 39.9994 4.39671C39.9994 3.51283 39.6483 2.66513 39.0234 2.04004Z" fill="#F2F2F2"/>
<path d="M10.5435 25.3182C6.84265 28.8305 3.96642 33.1195 2.12188 37.8766C2.06751 38.0254 2.0567 38.1867 2.09073 38.3414C2.12475 38.4962 2.2022 38.6381 2.31399 38.7504C2.42577 38.8627 2.56727 38.9408 2.72187 38.9755C2.87647 39.0103 3.03778 39.0002 3.18688 38.9466C7.97717 37.151 12.3051 34.3066 15.8535 30.6216L17.7802 28.6932C17.9364 28.537 18.0242 28.325 18.0242 28.1041C18.0242 27.8831 17.9364 27.6712 17.7802 27.5149L13.6485 23.3916C13.4923 23.2353 13.2803 23.1476 13.0594 23.1476C12.8384 23.1476 12.6265 23.2353 12.4702 23.3916L10.5435 25.3182Z" fill="#F2F2F2"/>
<path d="M29.5582 25.1666L17.2249 12.8332C17.147 12.7551 17.1033 12.6493 17.1033 12.5391C17.1033 12.4288 17.147 12.323 17.2249 12.2449L18.9915 10.4782C19.1547 10.3258 19.2856 10.1421 19.3765 9.93814C19.4673 9.73414 19.5162 9.51396 19.5203 9.29069C19.5244 9.06742 19.4836 8.8456 19.4003 8.63841C19.317 8.43121 19.1929 8.24288 19.0354 8.08458C18.8779 7.92629 18.6901 7.80126 18.4834 7.71692C18.2766 7.63259 18.055 7.59067 17.8317 7.59365C17.6084 7.59664 17.388 7.64446 17.1835 7.73429C16.9791 7.82412 16.7948 7.95412 16.6415 8.11657L7.21487 17.5449C7.05569 17.6986 6.92871 17.8825 6.84137 18.0859C6.75402 18.2892 6.70804 18.5079 6.70612 18.7292C6.70419 18.9505 6.74636 19.17 6.83017 19.3748C6.91397 19.5796 7.03772 19.7657 7.19421 19.9222C7.3507 20.0787 7.53678 20.2025 7.74161 20.2863C7.94644 20.3701 8.16591 20.4122 8.3872 20.4103C8.6085 20.4084 8.8272 20.3624 9.03054 20.2751C9.23388 20.1877 9.41779 20.0607 9.57154 19.9016L11.3382 18.1349C11.4163 18.057 11.5221 18.0133 11.6324 18.0133C11.7426 18.0133 11.8484 18.057 11.9265 18.1349L24.2599 30.4682C27.773 34.1681 32.0617 37.0441 36.8182 38.8899C36.9671 38.944 37.1284 38.9546 37.2831 38.9203C37.4378 38.886 37.5796 38.8084 37.6917 38.6964C37.8038 38.5844 37.8817 38.4428 37.9162 38.2882C37.9507 38.1335 37.9404 37.9722 37.8865 37.8232C36.0896 33.0357 33.244 28.7111 29.5582 25.1666Z" fill="#F2F2F2"/>
<path d="M9.45342 12.3598L11.3734 10.4382C11.5131 10.298 11.5984 10.1127 11.6139 9.91546C11.6295 9.71819 11.5744 9.52183 11.4584 9.36149C9.65509 6.86649 6.50009 2.79483 5.69009 1.97983C5.06484 1.3548 4.21691 1.00375 3.33283 1.00391C2.44875 1.00406 1.60095 1.35541 0.975919 1.98066C0.350892 2.60591 -0.000156228 3.45384 5.21574e-08 4.33791C0.000156332 5.22199 0.351505 6.0698 0.976753 6.69483C1.51342 7.23149 5.77342 10.5282 8.37175 12.4415C8.53211 12.5592 8.72931 12.6157 8.92769 12.6007C9.12608 12.5858 9.31255 12.5003 9.45342 12.3598Z" fill="#F2F2F2"/>
</g>
<defs>
<clipPath id="clip0">
<rect width="40" height="40" fill="white"/>
</clipPath>
</defs>
</svg>
