<svg width="12" height="12" viewBox="0 0 12 12" fill="none" xmlns="http://www.w3.org/2000/svg">
<g clip-path="url(#clip0)">
<path d="M11.707 0.612122C11.5194 0.424651 11.2651 0.319336 11 0.319336C10.7348 0.319336 10.4805 0.424651 10.293 0.612122C10.15 0.755122 8.74998 2.37512 8.03648 3.28412C8.0258 3.29851 8.01214 3.31043 7.99644 3.31906C7.98073 3.32769 7.96335 3.33283 7.94548 3.33412C7.92785 3.33512 7.91021 3.33244 7.89368 3.32624C7.87715 3.32004 7.8621 3.31047 7.84948 3.29812L7.03748 2.48362C6.94371 2.38989 6.81656 2.33723 6.68398 2.33723C6.55139 2.33723 6.42424 2.38989 6.33048 2.48362C6.23674 2.57739 6.18408 2.70454 6.18408 2.83712C6.18408 2.9697 6.23674 3.09686 6.33048 3.19062L6.86048 3.72062C6.8721 3.73219 6.88133 3.74594 6.88762 3.76109C6.89392 3.77623 6.89716 3.79247 6.89716 3.80887C6.89716 3.82527 6.89392 3.84151 6.88762 3.85666C6.88133 3.8718 6.8721 3.88555 6.86048 3.89712L6.74598 4.01162C6.69911 4.0585 6.67278 4.12208 6.67278 4.18837C6.67278 4.25466 6.69911 4.31824 6.74598 4.36512L7.98398 5.60362C8.03086 5.65049 8.09443 5.67682 8.16073 5.67682C8.22702 5.67682 8.29059 5.65049 8.33748 5.60362L8.45198 5.48862C8.47555 5.46535 8.50735 5.45231 8.54048 5.45231C8.5736 5.45231 8.6054 5.46535 8.62898 5.48862L9.15898 6.01862C9.25328 6.1097 9.37958 6.1601 9.51068 6.15896C9.64177 6.15782 9.76718 6.10524 9.85988 6.01253C9.95259 5.91983 10.0052 5.79442 10.0063 5.66332C10.0075 5.53222 9.95705 5.40592 9.86598 5.31162L9.02498 4.47062C9.01244 4.4581 9.00272 4.44306 8.99644 4.42649C8.99016 4.40992 8.98748 4.39221 8.98857 4.37453C8.98966 4.35685 8.99449 4.3396 9.00275 4.32393C9.01101 4.30825 9.0225 4.29451 9.03648 4.28362C9.91848 3.59562 11.4915 2.24162 11.707 2.02612C11.8944 1.83859 11.9998 1.58429 11.9998 1.31912C11.9998 1.05396 11.8944 0.79965 11.707 0.612122Z" fill="#2465A9"/>
<path d="M3.16301 7.59553C2.05275 8.6492 1.18988 9.9359 0.636514 11.363C0.620203 11.4077 0.616962 11.4561 0.62717 11.5025C0.637378 11.5489 0.660612 11.5915 0.694148 11.6252C0.727684 11.6589 0.770131 11.6823 0.816512 11.6927C0.862893 11.7031 0.911285 11.7001 0.956014 11.684C2.3931 11.1454 3.69148 10.292 4.75601 9.18653L5.33401 8.60803C5.38088 8.56115 5.40721 8.49757 5.40721 8.43128C5.40721 8.36499 5.38088 8.30141 5.33401 8.25453L4.09451 7.01753C4.04763 6.97066 3.98405 6.94434 3.91776 6.94434C3.85147 6.94434 3.7879 6.97066 3.74101 7.01753L3.16301 7.59553Z" fill="#2465A9"/>
<path d="M8.86749 7.54999L5.16748 3.84999C5.14413 3.82656 5.13101 3.79483 5.13101 3.76174C5.13101 3.72866 5.14413 3.69692 5.16748 3.67349L5.69749 3.14349C5.74645 3.09777 5.78572 3.04267 5.81297 2.98147C5.84022 2.92027 5.8549 2.85421 5.85612 2.78723C5.85735 2.72025 5.8451 2.6537 5.82011 2.59155C5.79512 2.52939 5.75789 2.47289 5.71064 2.4254C5.66338 2.37791 5.60707 2.3404 5.54503 2.3151C5.483 2.2898 5.41652 2.27723 5.34953 2.27812C5.28254 2.27902 5.21642 2.29336 5.15508 2.32031C5.09375 2.34726 5.03845 2.38626 4.99248 2.43499L2.16449 5.26349C2.11673 5.30962 2.07864 5.36479 2.05243 5.42579C2.02623 5.48679 2.01244 5.5524 2.01186 5.61879C2.01128 5.68518 2.02393 5.75102 2.04907 5.81247C2.07421 5.87392 2.11134 5.92974 2.15829 5.97669C2.20523 6.02364 2.26106 6.06076 2.32251 6.0859C2.38396 6.11104 2.4498 6.1237 2.51619 6.12312C2.58258 6.12254 2.64819 6.10875 2.70919 6.08254C2.77019 6.05634 2.82536 6.01825 2.87149 5.97049L3.40148 5.44049C3.42492 5.41714 3.45665 5.40402 3.48973 5.40402C3.52282 5.40402 3.55455 5.41714 3.57799 5.44049L7.27799 9.14049C8.33192 10.2504 9.61855 11.1133 11.0455 11.667C11.0902 11.6832 11.1385 11.6864 11.185 11.6761C11.2314 11.6658 11.2739 11.6425 11.3075 11.6089C11.3412 11.5754 11.3645 11.5329 11.3749 11.4865C11.3852 11.4401 11.3822 11.3917 11.366 11.347C10.8269 9.91075 9.97321 8.61337 8.86749 7.54999Z" fill="#2465A9"/>
<path d="M2.83603 3.70805L3.41203 3.13155C3.45393 3.0895 3.47951 3.03391 3.48418 2.97474C3.48885 2.91556 3.47232 2.85665 3.43753 2.80855C2.89653 2.06005 1.95003 0.838545 1.70703 0.594045C1.51945 0.406537 1.26507 0.301223 0.999849 0.30127C0.734626 0.301316 0.480284 0.406721 0.292776 0.594295C0.105268 0.78187 -4.68684e-05 1.03625 1.56472e-08 1.30147C4.68997e-05 1.5667 0.105451 1.82104 0.293026 2.00855C0.454026 2.16955 1.73203 3.15855 2.51153 3.73255C2.55963 3.76787 2.61879 3.78482 2.67831 3.78032C2.73782 3.77583 2.79377 3.75019 2.83603 3.70805Z" fill="#2465A9"/>
</g>
<defs>
<clipPath id="clip0">
<rect width="12" height="12" fill="white"/>
</clipPath>
</defs>
</svg>
