<svg width="6" height="6" viewBox="0 0 6 6" fill="none" xmlns="http://www.w3.org/2000/svg">
<path d="M2.57229 5.26438L0.141035 1.25338C0.0951094 1.17755 0.0701747 1.09086 0.0687868 1.00221C0.067399 0.913562 0.0896078 0.826138 0.133137 0.7489C0.176667 0.671661 0.239951 0.607386 0.316504 0.562662C0.393057 0.517938 0.480125 0.494374 0.568785 0.494385L5.43129 0.494385C5.51998 0.494348 5.60709 0.517905 5.68368 0.562642C5.76027 0.607379 5.82358 0.671684 5.86712 0.748962C5.91066 0.826239 5.93285 0.913707 5.93143 1.00239C5.93001 1.09108 5.90503 1.17779 5.85904 1.25363L3.42779 5.26438C3.38325 5.33797 3.32048 5.39882 3.24554 5.44106C3.17061 5.48329 3.08605 5.50548 3.00004 5.50548C2.91402 5.50548 2.82946 5.48329 2.75453 5.44106C2.67959 5.39882 2.61682 5.33797 2.57229 5.26438Z" fill="white"/>
</svg>
