<svg width="22" height="16" viewBox="0 0 22 16" fill="none" xmlns="http://www.w3.org/2000/svg">
<g id="youtube-outlined">
<path id="Shape" fill-rule="evenodd" clip-rule="evenodd" d="M19.0004 0.489988L17.5404 0.339988C13.1722 -0.113329 8.76869 -0.113329 4.40041 0.339988L3.00041 0.489988C1.27192 0.685351 -0.0260478 2.1607 0.000396915 3.89999V12.1C-0.0260478 13.8393 1.27192 15.3146 3.00041 15.51L4.46041 15.66C6.63303 15.8869 8.81599 16.0004 11.0004 16C13.1949 16.0014 15.3879 15.8879 17.5704 15.66L19.0004 15.51C20.7289 15.3146 22.0269 13.8393 22.0005 12.1V3.89999C22.0269 2.1607 20.7289 0.685351 19.0004 0.489988ZM20.0004 12.1C20.0282 12.8055 19.5191 13.4182 18.8204 13.52L17.3604 13.67C15.2475 13.8901 13.1247 14.0003 11.0004 14C8.87608 14.0003 6.75321 13.8901 4.64036 13.67L3.18036 13.52C2.48168 13.4182 1.97252 12.8055 2.00036 12.1V3.89999C1.97252 3.19449 2.48168 2.58176 3.18036 2.47999L4.64036 2.32999C8.86895 1.88997 13.1318 1.88997 17.3604 2.32999L18.8204 2.47999C19.5191 2.58176 20.0282 3.19449 20.0004 3.89999V12.1ZM9.39931 4.73859C9.64425 4.60879 9.94082 4.62469 10.1705 4.77993L14.0605 7.37993C14.2701 7.51651 14.3965 7.74975 14.3965 7.99993C14.3965 8.25011 14.2701 8.48335 14.0605 8.61993L10.1705 11.2199C9.94082 11.3752 9.64425 11.3911 9.39931 11.2613C9.15437 11.1315 9.00099 10.8771 9.00049 10.5999V5.39993C9.00099 5.12272 9.15437 4.86839 9.39931 4.73859Z" fill="#112944"/>
</g>
</svg>
